<?xml version="1.0" standalone="no"?>
<!DOCTYPE svg PUBLIC "-//W3C//DTD SVG 20010904//EN"
 "http://www.w3.org/TR/2001/REC-SVG-20010904/DTD/svg10.dtd">
<svg version="1.0" xmlns="http://www.w3.org/2000/svg"
 width="285.000000pt" height="285.000000pt" viewBox="0 0 285.000000 285.000000"
 preserveAspectRatio="xMidYMid meet">
<metadata>
Created by potrace 1.14, written by Peter Selinger 2001-2017
</metadata>
<g transform="translate(0.000000,285.000000) scale(0.100000,-0.100000)"
fill="#000000" stroke="none">
<path d="M1185 2843 c-36 -10 -119 -69 -176 -125 -227 -225 -486 -684 -604
-1072 -69 -226 -80 -447 -28 -550 79 -158 284 -163 596 -17 48 23 90 41 94 41
9 0 9 -2 0 -105 -13 -128 -16 -153 -42 -300 -19 -109 -21 -116 -45 -229 -23
-109 -21 -144 3 -44 8 35 33 126 55 203 22 77 57 209 79 293 21 83 41 152 46
152 4 0 11 -10 16 -22 25 -64 184 -240 297 -329 55 -43 212 -153 239 -166 16
-9 32 -19 35 -22 22 -27 535 -290 545 -280 2 3 7 21 9 40 11 83 46 166 116
269 74 110 88 155 64 205 -51 108 -345 213 -1024 365 -52 12 -105 24 -117 26
-12 2 -47 10 -79 17 l-58 13 65 39 c57 35 255 166 364 242 116 81 279 232 326
302 101 153 -13 224 -255 160 -131 -35 -314 -129 -379 -194 -21 -20 -30 -19
-23 3 3 9 7 33 10 52 2 19 9 62 15 95 21 119 24 142 36 250 4 33 9 71 11 85 3
14 7 97 9 185 5 220 -18 337 -80 395 -23 22 -83 33 -120 23z m-284 -777 c90
-90 159 -307 175 -541 3 -49 7 -104 9 -121 5 -56 -9 -56 -50 -1 -22 28 -42 54
-45 57 -22 19 -131 201 -166 275 -80 170 -97 313 -42 360 36 31 69 22 119 -29z"/>
<path d="M941 324 c0 -11 3 -14 6 -6 3 7 2 16 -1 19 -3 4 -6 -2 -5 -13z"/>
</g>
</svg>
